<?xml version="1.0" encoding="utf-8"?>
<!-- Generator: Adobe Illustrator 23.0.2, SVG Export Plug-In . SVG Version: 6.00 Build 0)  -->
<svg version="1.1" id="レイヤー_1" xmlns="http://www.w3.org/2000/svg" xmlns:xlink="http://www.w3.org/1999/xlink" x="0px"
	 y="0px" viewBox="0 0 405.53 405.53" style="enable-background:new 0 0 405.53 405.53;" xml:space="preserve">
<style type="text/css">
	.st0{fill:url(#SVGID_1_);}
</style>
<g>
	<radialGradient id="SVGID_1_" cx="202.7665" cy="202.7665" r="215.3849" gradientUnits="userSpaceOnUse">
		<stop  offset="0" style="stop-color:#ADDEF8"/>
		<stop  offset="0.225" style="stop-color:#6EC8E2"/>
		<stop  offset="0.5153" style="stop-color:#00A7E3"/>
		<stop  offset="0.5582" style="stop-color:#00A4E1"/>
		<stop  offset="0.6233" style="stop-color:#0098D7"/>
		<stop  offset="0.7023" style="stop-color:#0085C7"/>
		<stop  offset="0.7924" style="stop-color:#006AAF"/>
		<stop  offset="0.8905" style="stop-color:#004792"/>
		<stop  offset="0.9031" style="stop-color:#00428E"/>
		<stop  offset="1" style="stop-color:#003477"/>
	</radialGradient>
	<path class="st0" d="M372.85,170.09h-89.3c-26.57,0-48.1-21.54-48.1-48.1l0-88.22c0-17.99-14.08-33.43-32.07-33.76
		c-18.33-0.34-33.29,14.42-33.29,32.68v89.3c0,26.57-21.54,48.1-48.1,48.1h-89.3C14.63,170.09,0,184.72,0,202.77v0
		c0,18.05,14.63,32.68,32.68,32.68h89.3c26.57,0,48.1,21.54,48.1,48.1v88.22c0,17.99,14.08,33.43,32.07,33.76
		c18.33,0.34,33.3-14.42,33.3-32.67v-89.3c0-26.57,21.54-48.1,48.1-48.1h89.3c18.05,0,32.68-14.63,32.68-32.68v0
		C405.53,184.72,390.9,170.09,372.85,170.09z"/>
</g>
</svg>
