<?xml version="1.0" encoding="utf-8"?>
<!-- Generator: Adobe Illustrator 23.0.2, SVG Export Plug-In . SVG Version: 6.00 Build 0)  -->
<svg version="1.1" id="レイヤー_1" xmlns="http://www.w3.org/2000/svg" xmlns:xlink="http://www.w3.org/1999/xlink" x="0px"
	 y="0px" viewBox="0 0 462.52 108.42" style="enable-background:new 0 0 462.52 108.42;" xml:space="preserve">
<style type="text/css">
	.st0{fill:url(#SVGID_1_);}
	.st1{fill:#fff;}
</style>
<g>
	<radialGradient id="SVGID_1_" cx="54.2114" cy="54.2114" r="57.5851" gradientUnits="userSpaceOnUse">
		<stop  offset="0" style="stop-color:#ADDEF8"/>
		<stop  offset="0.225" style="stop-color:#6EC8E2"/>
		<stop  offset="0.5153" style="stop-color:#00A7E3"/>
		<stop  offset="0.5582" style="stop-color:#00A4E1"/>
		<stop  offset="0.6233" style="stop-color:#0098D7"/>
		<stop  offset="0.7023" style="stop-color:#0085C7"/>
		<stop  offset="0.7924" style="stop-color:#006AAF"/>
		<stop  offset="0.8905" style="stop-color:#004792"/>
		<stop  offset="0.9031" style="stop-color:#00428E"/>
		<stop  offset="1" style="stop-color:#003477"/>
	</radialGradient>
	<path class="st0" d="M99.69,45.47H75.81c-7.1,0-12.86-5.76-12.86-12.86l0-23.59c0-4.81-3.76-8.94-8.57-9.03
		c-4.9-0.09-8.9,3.86-8.9,8.74v23.88c0,7.1-5.76,12.86-12.86,12.86H8.74C3.91,45.47,0,49.39,0,54.21v0c0,4.83,3.91,8.74,8.74,8.74
		h23.88c7.1,0,12.86,5.76,12.86,12.86l0,23.59c0,4.81,3.76,8.94,8.57,9.03c4.9,0.09,8.9-3.86,8.9-8.74V75.81
		c0-7.1,5.76-12.86,12.86-12.86h23.88c4.83,0,8.74-3.91,8.74-8.74v0C108.42,49.39,104.51,45.47,99.69,45.47z"/>
	<g>
		<path class="st1" d="M159.11,36.47c-4.73-2.7-9.38-4.05-13.94-4.05c-2.36,0-4.21,0.59-5.53,1.77c-1.32,1.18-1.98,2.79-1.98,4.82
			c0,4,1.94,6.81,5.83,8.45c6.53,2.7,11.05,5.6,13.56,8.7c2.51,3.1,3.76,7.1,3.76,12c0,11.83-6.34,17.74-19.01,17.74
			c-5.63,0-10.7-1.41-15.2-4.22v-11.4c4.67,3.83,9.55,5.74,14.61,5.74c5.29,0,7.94-2.48,7.94-7.43c0-4.28-2.17-7.38-6.5-9.29
			c-6.08-2.59-10.35-5.39-12.8-8.41c-2.45-3.01-3.67-6.83-3.67-11.44c0-5.07,1.61-9.15,4.81-12.25c3.21-3.1,7.52-4.65,12.92-4.65
			c5.74,0,10.81,0.99,15.21,2.96V36.47z"/>
		<path class="st1" d="M199.72,42.81v9.21h-13.35v16.98c0,3.44,0.3,5.53,0.89,6.29c0.59,0.76,2.21,1.14,4.86,1.14
			c2.42,0,4.67-0.48,6.76-1.44v9.63c-2.82,0.85-5.91,1.27-9.29,1.27c-5.52,0-9.36-1.03-11.53-3.08c-2.17-2.06-3.25-5.81-3.25-11.28
			V52.02h-8.87v-9.21h8.87V26.76h11.57v16.05H199.72z"/>
		<path class="st1" d="M216.9,67.64c0.39,3.49,1.32,5.9,2.79,7.22c1.46,1.32,3.72,1.98,6.76,1.98c2.93,0,6.73-0.79,11.4-2.36v9.29
			c-4.73,1.41-9.1,2.11-13.09,2.11c-6.31,0-11.19-1.91-14.66-5.75c-3.46-3.83-5.2-9.52-5.2-17.06c0-15.2,6.19-22.81,18.58-22.81
			c11.26,0,16.89,7.6,16.89,22.81c0,1.75-0.06,3.27-0.17,4.56H216.9z M216.81,58.86h11.99c-0.06-3.55-0.49-6.03-1.31-7.43
			c-0.82-1.41-2.15-2.11-4.01-2.11c-2.31,0-3.94,0.65-4.9,1.94C217.63,52.55,217.04,55.08,216.81,58.86z"/>
		<path class="st1" d="M260.53,68.99c0,3.83,0.25,6.1,0.76,6.8c0.51,0.7,2.08,1.06,4.73,1.06c1.75,0,3.86-0.17,6.33-0.51v9.12
			c-2.48,0.28-5.29,0.42-8.45,0.42c-6.25,0-10.35-0.92-12.29-2.75c-1.94-1.83-2.91-5.7-2.91-11.61V32.42h-10.14v-9.04h21.96V68.99z"
			/>
		<path class="st1" d="M290.52,68.99c0,3.83,0.25,6.1,0.76,6.8c0.51,0.7,2.08,1.06,4.73,1.06c1.74,0,3.86-0.17,6.33-0.51v9.12
			c-2.48,0.28-5.29,0.42-8.45,0.42c-6.25,0-10.35-0.92-12.29-2.75c-1.94-1.83-2.91-5.7-2.91-11.61V32.42h-10.14v-9.04h21.96V68.99z"
			/>
		<path class="st1" d="M311.01,43.23c2.2-0.79,4.87-1.48,8.02-2.07s5.69-0.89,7.6-0.89c6.25,0,10.63,1.27,13.14,3.8
			c2.5,2.53,3.76,7.04,3.76,13.52v27.45H332.8l-0.17-5.49h-0.17c-2.76,4.22-6.53,6.34-11.32,6.34c-3.83,0-6.83-1.18-9-3.55
			c-2.17-2.36-3.25-5.69-3.25-9.97c0-4.95,1.79-8.8,5.36-11.53c3.58-2.73,8.83-4.1,15.75-4.1h2.11V55.9c0-2.25-0.45-3.84-1.35-4.77
			c-0.9-0.93-2.42-1.39-4.56-1.39c-1.8,0-4.24,0.32-7.31,0.97c-3.07,0.65-5.7,1.39-7.9,2.24V43.23z M332.13,64.35h-2.11
			c-3.32,0-5.84,0.65-7.56,1.94c-1.72,1.3-2.58,3.04-2.58,5.24c0,1.75,0.42,3.1,1.27,4.05c0.84,0.96,1.97,1.44,3.38,1.44
			c5.07,0,7.6-3.66,7.6-10.98V64.35z"/>
		<path class="st1" d="M374.65,49.9c-3.89,0-7.01,1.47-9.38,4.39c-2.36,2.93-3.55,6.98-3.55,12.16v18.58h-11.57V41.12h11.4v7.18
			h0.17c2.03-2.98,4.01-5.07,5.96-6.25c1.94-1.18,4.27-1.77,6.97-1.77c2.03,0,4,0.28,5.91,0.85v9.71
			C378.53,50.21,376.56,49.9,374.65,49.9z"/>
		<path class="st1" d="M407.82,78.71h-0.17c-2.53,4.22-5.8,6.33-9.8,6.33c-4.39,0-7.96-1.87-10.69-5.62
			c-2.73-3.74-4.1-9.19-4.1-16.34c0-7.71,1.29-13.44,3.88-17.19c2.59-3.74,6.22-5.62,10.9-5.62c1.97,0,3.73,0.49,5.28,1.48
			c1.55,0.99,3.14,2.75,4.77,5.28h0.17l0.17-5.91h11.15v42.66c0,13.8-6.76,20.7-20.27,20.7c-4.56,0-8.78-0.7-12.67-2.11v-9.71
			c4.28,1.86,8.36,2.79,12.25,2.79c3.1,0,5.39-0.96,6.88-2.87c1.49-1.91,2.24-5.12,2.24-9.63V78.71z M394.64,63.08
			c0,3.94,0.62,6.9,1.86,8.87c1.24,1.97,2.82,2.96,4.73,2.96c4.5,0,6.76-3.8,6.76-11.4v-0.85c0-8.17-2.25-12.25-6.76-12.25
			C396.84,50.41,394.64,54.63,394.64,63.08z"/>
		<path class="st1" d="M425.35,63.08c0-15.2,6.19-22.81,18.58-22.81c12.39,0,18.58,7.6,18.58,22.81s-6.2,22.81-18.58,22.81
			C431.55,85.89,425.35,78.29,425.35,63.08z M438.7,74.02c1.01,1.89,2.76,2.83,5.24,2.83c2.48,0,4.22-0.94,5.24-2.83
			c1.01-1.89,1.52-5.53,1.52-10.94c0-5.41-0.51-9.05-1.52-10.94c-1.01-1.89-2.76-2.83-5.24-2.83c-2.48,0-4.22,0.94-5.24,2.83
			c-1.01,1.89-1.52,5.53-1.52,10.94C437.18,68.49,437.68,72.13,438.7,74.02z"/>
	</g>
</g>
</svg>
